<svg version="1.1" id="Layer_1" xmlns="http://www.w3.org/2000/svg" xmlns:xlink="http://www.w3.org/1999/xlink" x="0px" y="0px"
	 width="100%" viewBox="0 0 256 256" enable-background="new 0 0 256 256" xml:space="preserve">
<path fill="#FEFEFF" opacity="1.000000" stroke="none" 
	d="
M65.000000,1.000000 
	C107.354225,1.000000 149.708450,1.000000 192.511993,1.258913 
	C193.014923,1.682405 193.068542,1.846983 193.037613,2.466565 
	C192.953079,5.877913 192.953079,8.834257 192.953079,12.241858 
	C210.095749,12.241858 226.825699,12.241858 244.167801,12.241858 
	C244.167801,40.471264 244.167801,68.236031 244.093079,96.464134 
	C244.067917,118.284752 244.117493,139.642029 244.091736,161.462616 
	C244.016373,189.507080 244.016373,217.088226 244.016373,244.931290 
	C241.399094,244.931290 239.423813,244.927277 237.448563,244.931885 
	C211.966385,244.991302 186.484192,245.051956 160.540161,245.026382 
	C110.679565,244.940460 61.280804,244.940460 11.792969,244.940460 
	C11.792969,167.167725 11.792969,89.978035 11.792969,12.479279 
	C25.988564,12.479279 39.921337,12.479279 53.867142,12.916700 
	C53.905190,16.161573 53.949696,18.969009 53.951797,21.776478 
	C53.960133,32.910763 53.955223,32.910767 65.014053,33.421005 
	C65.008827,36.118755 65.008827,38.363968 65.008827,41.046356 
	C70.749840,41.046356 75.704720,41.240047 80.635826,40.981113 
	C84.169754,40.795540 85.252068,42.077457 85.142090,45.532681 
	C84.920616,52.490929 85.124481,59.461643 85.061066,66.426384 
	C85.020622,70.867188 86.127411,73.868248 91.552193,73.064850 
	C93.988045,72.704102 96.518394,72.981483 99.473007,73.003387 
	C109.289993,73.011688 118.639839,72.985901 128.458710,72.975189 
	C134.229141,72.996010 139.536606,73.156837 144.829697,72.950020 
	C148.067093,72.823524 149.177689,73.920341 149.113525,77.194855 
	C148.970840,84.476677 149.184570,91.765488 149.184265,99.480637 
	C149.196106,101.495720 149.276703,103.081619 149.359863,104.718330 
	C160.120911,104.718330 170.339447,104.718330 181.015564,104.718330 
	C181.015564,102.583656 181.015564,100.789642 181.016571,98.580002 
	C179.599030,97.464867 178.206482,96.232841 176.757217,96.162056 
	C171.677109,95.913902 166.577484,96.065804 160.903442,96.065804 
	C160.903442,85.045532 160.903442,74.807373 160.903442,64.196228 
	C149.524963,64.196228 138.742661,64.196228 127.497803,64.143303 
	C117.699715,64.125610 108.364174,64.160835 98.638351,64.056740 
	C97.852203,62.417049 97.140175,60.922104 97.114357,59.415398 
	C96.992477,52.301949 96.896942,45.180119 97.123970,38.071884 
	C97.241386,34.395481 96.460907,32.722862 92.265907,32.875736 
	C83.176567,33.206963 74.067780,33.004398 64.982925,32.549721 
	C64.998802,25.394369 64.998703,18.709419 65.034531,11.569726 
	C65.009354,8.078349 64.948265,5.041716 64.964508,1.759328 
	C65.027893,1.342382 65.013947,1.171191 65.000000,1.000000 
M98.673462,157.122208 
	C98.673462,147.848190 98.673462,138.574173 98.673462,129.219147 
	C88.766975,129.219147 79.385719,129.219147 70.001236,129.219147 
	C70.001236,139.032608 70.001236,148.499008 69.811890,158.890823 
	C69.811890,168.001526 69.811890,177.112228 69.811890,186.318054 
	C79.702774,186.318054 89.069870,186.318054 98.414726,186.318054 
	C98.414726,176.628662 98.414726,167.329147 98.673462,157.122208 
M156.947250,158.888931 
	C156.947250,167.997208 156.947250,177.105484 156.947250,186.462082 
	C166.797775,186.462082 176.193253,186.462082 185.918274,186.462082 
	C185.918274,176.815750 185.918274,167.388168 186.088272,157.044891 
	C186.088272,147.800446 186.088272,138.556000 186.088272,129.255569 
	C176.111755,129.255569 166.615417,129.255569 157.111465,129.255569 
	C157.111465,139.069336 157.111465,148.514175 156.947250,158.888931 
M24.744999,73.006470 
	C34.318832,73.006470 43.892670,73.006470 53.826637,73.006470 
	C53.381798,69.741776 53.033543,67.185898 52.603474,64.029633 
	C47.529293,64.029633 42.581810,63.795681 37.668434,64.104477 
	C33.814751,64.346672 32.752869,62.867496 32.974602,59.238716 
	C33.247467,54.773136 32.941498,50.275230 33.074741,45.796925 
	C33.153610,43.145985 32.422672,41.661388 29.467367,41.912491 
	C27.819143,42.052540 26.142862,42.031494 24.490700,41.917175 
	C21.886196,41.736969 20.992310,42.896313 21.022230,45.437950 
	C21.117983,53.571346 20.958326,61.709351 21.182306,69.837715 
	C21.211964,70.913956 22.891972,71.944717 24.744999,73.006470 
M194.011414,64.307419 
	C193.610458,67.047516 193.209518,69.787613 192.796738,72.608566 
	C200.125015,72.608566 206.349991,72.608566 212.620331,72.608566 
	C212.620331,69.644463 212.620331,67.086205 212.620331,64.095055 
	C206.464523,64.095055 200.681763,64.095055 194.011414,64.307419 
z"/>
<path fill="#050DB4" opacity="1.000000" stroke="none" 
	d="
M64.887169,2.005083 
	C64.948265,5.041716 65.009354,8.078349 64.578537,11.644915 
	C60.675789,12.276323 57.264950,12.377801 53.854115,12.479279 
	C39.921337,12.479279 25.988564,12.479279 11.792969,12.479279 
	C11.792969,89.978035 11.792969,167.167725 11.792969,244.940460 
	C61.280804,244.940460 110.679565,244.940460 160.539215,245.479736 
	C161.000076,249.679337 161.000046,253.339676 161.000000,257.000000 
	C107.722931,257.000000 54.445854,257.000000 1.000000,257.000000 
	C1.000000,172.312515 1.000000,87.624916 1.468657,2.467606 
	C22.920599,2.000293 43.903885,2.002688 64.887169,2.005083 
z"/>
<path fill="#000AB5" opacity="1.000000" stroke="none" 
	d="
M161.468658,257.000000 
	C161.000046,253.339676 161.000076,249.679337 161.001068,245.565659 
	C186.484192,245.051956 211.966385,244.991302 237.448563,244.931885 
	C239.423813,244.927277 241.399094,244.931290 244.016373,244.931290 
	C244.016373,217.088226 244.016373,189.507080 244.541412,161.462875 
	C248.697739,160.998215 252.329025,160.996597 255.973938,161.463760 
	C255.991699,193.621689 255.995850,225.310852 256.000000,257.000000 
	C224.645767,257.000000 193.291550,257.000000 161.468658,257.000000 
z"/>
<path fill="#0C16E0" opacity="1.000000" stroke="none" 
	d="
M256.500000,257.000000 
	C255.995850,225.310852 255.991699,193.621689 255.988327,160.995804 
	C255.979431,138.707932 255.969772,117.356804 255.972778,95.536827 
	C255.978653,64.056328 255.971863,33.044678 255.974106,1.774781 
	C255.988754,1.344356 255.994370,1.172178 256.000000,1.000000 
	C256.333344,2.500001 256.957520,3.999838 256.958374,5.500024 
	C257.005188,89.333336 257.000000,173.166672 256.500000,257.000000 
z"/>
<path fill="#0711CE" opacity="1.000000" stroke="none" 
	d="
M64.964508,1.759328 
	C43.903885,2.002688 22.920599,2.000293 1.468657,1.998949 
	C2.322033,1.666667 3.643163,1.047127 4.966235,1.042951 
	C24.664900,0.980777 44.363823,1.000000 64.531342,1.000000 
	C65.013947,1.171191 65.027893,1.342382 64.964508,1.759328 
z"/>
<path fill="#0711CE" opacity="1.000000" stroke="none" 
	d="
M255.531342,1.000000 
	C255.994370,1.172178 255.988754,1.344356 255.509430,1.763335 
	C234.397858,2.010612 213.760010,2.011087 193.122147,2.011562 
	C193.068542,1.846983 193.014923,1.682405 192.980652,1.258913 
	C213.687561,1.000000 234.375122,1.000000 255.531342,1.000000 
z"/>
<path fill="#000AB6" opacity="1.000000" stroke="none" 
	d="
M193.037613,2.466565 
	C213.760010,2.011087 234.397858,2.010612 255.500397,2.021583 
	C255.971863,33.044678 255.978653,64.056328 255.519012,95.534737 
	C251.424347,96.001259 247.796066,96.001022 244.167801,96.000793 
	C244.167801,68.236031 244.167801,40.471264 244.167801,12.241858 
	C226.825699,12.241858 210.095749,12.241858 192.953079,12.241858 
	C192.953079,8.834257 192.953079,5.877913 193.037613,2.466565 
z"/>
<path fill="#1426C7" opacity="1.000000" stroke="none" 
	d="
M185.918274,157.960602 
	C185.918274,167.388168 185.918274,176.815750 185.918274,186.462082 
	C176.193253,186.462082 166.797775,186.462082 156.947250,186.462082 
	C156.947250,177.105484 156.947250,167.997208 157.490662,158.430084 
	C167.328796,157.967682 176.623535,157.964142 185.918274,157.960602 
z"/>
<path fill="#1123C6" opacity="1.000000" stroke="none" 
	d="
M98.414726,158.029648 
	C98.414726,167.329147 98.414726,176.628662 98.414726,186.318054 
	C89.069870,186.318054 79.702774,186.318054 69.811890,186.318054 
	C69.811890,177.112228 69.811890,168.001526 70.375099,158.431519 
	C80.097115,157.991364 89.255920,158.010498 98.414726,158.029648 
z"/>
<path fill="#112CFE" opacity="1.000000" stroke="none" 
	d="
M186.003265,157.502747 
	C176.623535,157.964142 167.328796,157.967682 157.572754,157.965118 
	C157.111465,148.514175 157.111465,139.069336 157.111465,129.255569 
	C166.615417,129.255569 176.111755,129.255569 186.088272,129.255569 
	C186.088272,138.556000 186.088272,147.800446 186.003265,157.502747 
z"/>
<path fill="#1731FD" opacity="1.000000" stroke="none" 
	d="
M98.544098,157.575928 
	C89.255920,158.010498 80.097115,157.991364 70.469772,157.968811 
	C70.001236,148.499008 70.001236,139.032608 70.001236,129.219147 
	C79.385719,129.219147 88.766975,129.219147 98.673462,129.219147 
	C98.673462,138.574173 98.673462,147.848190 98.544098,157.575928 
z"/>
<path fill="#0008B1" opacity="1.000000" stroke="none" 
	d="
M244.093079,96.464134 
	C247.796066,96.001022 251.424347,96.001259 255.506363,96.003586 
	C255.969772,117.356804 255.979431,138.707932 255.974701,160.527023 
	C252.329025,160.996597 248.697739,160.998215 244.616760,160.999573 
	C244.117493,139.642029 244.067917,118.284752 244.093079,96.464134 
z"/>
<path fill="#D3D3D3" opacity="1.000000" stroke="none" 
	d="
M127.960350,64.196228 
	C138.742661,64.196228 149.524963,64.196228 160.903442,64.196228 
	C160.903442,74.807373 160.903442,85.045532 160.903442,96.065804 
	C166.577484,96.065804 171.677109,95.913902 176.757217,96.162056 
	C178.206482,96.232841 179.599030,97.464867 180.546249,98.581032 
	C169.800949,99.015594 159.526993,99.033516 149.253021,99.051445 
	C149.184570,91.765488 148.970840,84.476677 149.113525,77.194855 
	C149.177689,73.920341 148.067093,72.823524 144.829697,72.950020 
	C139.536606,73.156837 134.229141,72.996010 128.463348,72.533051 
	C127.986092,69.449287 127.973221,66.822762 127.960350,64.196228 
z"/>
<path fill="#D0D0D0" opacity="1.000000" stroke="none" 
	d="
M64.966942,33.020126 
	C74.067780,33.004398 83.176567,33.206963 92.265907,32.875736 
	C96.460907,32.722862 97.241386,34.395481 97.123970,38.071884 
	C96.896942,45.180119 96.992477,52.301949 97.114357,59.415398 
	C97.140175,60.922104 97.852203,62.417049 98.629395,64.485603 
	C99.009094,67.692299 99.007484,70.330795 99.005875,72.969299 
	C96.518394,72.981483 93.988045,72.704102 91.552193,73.064850 
	C86.127411,73.868248 85.020622,70.867188 85.061066,66.426384 
	C85.124481,59.461643 84.920616,52.490929 85.142090,45.532681 
	C85.252068,42.077457 84.169754,40.795540 80.635826,40.981113 
	C75.704720,41.240047 70.749840,41.046356 65.008827,41.046356 
	C65.008827,38.363968 65.008827,36.118755 65.006897,33.440063 
	C65.004959,33.006580 64.966942,33.020126 64.966942,33.020126 
z"/>
<path fill="#D3D3D3" opacity="1.000000" stroke="none" 
	d="
M24.276329,73.001503 
	C22.891972,71.944717 21.211964,70.913956 21.182306,69.837715 
	C20.958326,61.709351 21.117983,53.571346 21.022230,45.437950 
	C20.992310,42.896313 21.886196,41.736969 24.490700,41.917175 
	C26.142862,42.031494 27.819143,42.052540 29.467367,41.912491 
	C32.422672,41.661388 33.153610,43.145985 33.074741,45.796925 
	C32.941498,50.275230 33.247467,54.773136 32.974602,59.238716 
	C32.752869,62.867496 33.814751,64.346672 37.668434,64.104477 
	C42.581810,63.795681 47.529293,64.029633 52.603474,64.029633 
	C53.033543,67.185898 53.381798,69.741776 53.826637,73.006470 
	C43.892670,73.006470 34.318832,73.006470 24.276329,73.001503 
z"/>
<path fill="#C9C9C9" opacity="1.000000" stroke="none" 
	d="
M99.473007,73.003387 
	C99.007484,70.330795 99.009094,67.692299 99.019669,64.624924 
	C108.364174,64.160835 117.699715,64.125610 127.497803,64.143303 
	C127.973221,66.822762 127.986092,69.449287 127.994324,72.517960 
	C118.639839,72.985901 109.289993,73.011688 99.473007,73.003387 
z"/>
<path fill="#C5C5CF" opacity="1.000000" stroke="none" 
	d="
M53.867142,12.916700 
	C57.264950,12.377801 60.675789,12.276323 64.542618,12.099657 
	C64.998703,18.709419 64.998802,25.394369 64.982925,32.549721 
	C64.966942,33.020126 65.004959,33.006580 65.012115,32.987526 
	C53.955223,32.910767 53.960133,32.910763 53.951797,21.776478 
	C53.949696,18.969009 53.905190,16.161573 53.867142,12.916700 
z"/>
<path fill="#D1C6C4" opacity="1.000000" stroke="none" 
	d="
M149.184265,99.480637 
	C159.526993,99.033516 169.800949,99.015594 180.545242,98.996643 
	C181.015564,100.789642 181.015564,102.583656 181.015564,104.718330 
	C170.339447,104.718330 160.120911,104.718330 149.359863,104.718330 
	C149.276703,103.081619 149.196106,101.495720 149.184265,99.480637 
z"/>
<path fill="#D0D0D0" opacity="1.000000" stroke="none" 
	d="
M194.455215,64.201233 
	C200.681763,64.095055 206.464523,64.095055 212.620331,64.095055 
	C212.620331,67.086205 212.620331,69.644463 212.620331,72.608566 
	C206.349991,72.608566 200.125015,72.608566 192.796738,72.608566 
	C193.209518,69.787613 193.610458,67.047516 194.455215,64.201233 
z"/>
</svg>